<?xml version="1.0" encoding="UTF-8" standalone="no"?>
<!DOCTYPE svg PUBLIC "-//W3C//DTD SVG 1.0//EN" "http://www.w3.org/TR/2001/PR-SVG-20010719/DTD/svg10.dtd">
<svg width="17cm" height="29cm" viewBox="302 158 334 571" xmlns="http://www.w3.org/2000/svg" xmlns:xlink="http://www.w3.org/1999/xlink">
  <g id="Фон">
    <g>
      <path style="fill: #ffffff; fill-opacity: 1; stroke-opacity: 1; stroke-width: 2; stroke: #000000" fill-rule="evenodd" d="M 453.55 160 L 508.45,160 C 516.03,160 522.175,168.954 522.175,180 C 522.175,191.046 516.03,200 508.45,200 L 453.55,200 C 445.97,200 439.825,191.046 439.825,180 C 439.825,168.954 445.97,160 453.55,160z"/>
      <text font-size="12.7998" style="fill: #000000; fill-opacity: 1; stroke: none;text-anchor:middle;font-family:sans-serif;font-style:normal;font-weight:normal" x="481" y="183.881">
        <tspan x="481" y="183.881">Начало</tspan>
      </text>
    </g>
    <g>
      <polygon style="fill: #ffffff; fill-opacity: 1; stroke-opacity: 1; stroke-width: 2; stroke: #000000" fill-rule="evenodd" points="328.754,231.833 632.724,231.833 607.246,301.833 303.276,301.833 "/>
      <text font-size="12.7998" style="fill: #000000; fill-opacity: 1; stroke: none;text-anchor:middle;font-family:sans-serif;font-style:normal;font-weight:normal" x="468" y="254.714">
        <tspan x="468" y="254.714">Ввод n до которого</tspan>
        <tspan x="468" y="270.714">нужно вычислить последовательность</tspan>
        <tspan x="468" y="286.714">Фибоначи</tspan>
      </text>
    </g>
    <g>
      <rect style="fill: #ffffff; fill-opacity: 1; stroke-opacity: 1; stroke-width: 2; stroke: #000000" x="361.656" y="330.667" width="186.687" height="40" rx="0" ry="0"/>
      <line style="fill: none; stroke-opacity: 1; stroke-width: 2; stroke: #000000" x1="380.325" y1="330.667" x2="380.325" y2="370.667"/>
      <line style="fill: none; stroke-opacity: 1; stroke-width: 2; stroke: #000000" x1="529.675" y1="330.667" x2="529.675" y2="370.667"/>
      <text font-size="12.7998" style="fill: #000000; fill-opacity: 1; stroke: none;text-anchor:middle;font-family:sans-serif;font-style:normal;font-weight:normal" x="455" y="354.548">
        <tspan x="455" y="354.548">Вызов функции fib(n)</tspan>
      </text>
    </g>
    <g>
      <rect style="fill: #ffffff; fill-opacity: 1; stroke-opacity: 1; stroke-width: 2; stroke: #000000" x="420.775" y="397.5" width="68.45" height="54" rx="0" ry="0"/>
      <text font-size="12.7998" style="fill: #000000; fill-opacity: 1; stroke: none;text-anchor:middle;font-family:sans-serif;font-style:normal;font-weight:normal" x="455" y="420.381">
        <tspan x="455" y="420.381">ch0:=0</tspan>
        <tspan x="455" y="436.381">ch1:=1</tspan>
      </text>
    </g>
    <g>
      <path style="fill: #ffffff; fill-opacity: 1; stroke-opacity: 1; stroke-width: 2; stroke: #000000" fill-rule="evenodd" d="M 430.425 477.333 L 477.575,477.333 L 487.005,497.333 L 477.575,517.333 L 430.425,517.333 L 420.995,497.333 L 430.425,477.333z"/>
      <text font-size="12.7998" style="fill: #000000; fill-opacity: 1; stroke: none;text-anchor:middle;font-family:sans-serif;font-style:normal;font-weight:normal" x="454" y="501.214">
        <tspan x="454" y="501.214">i &lt;= n</tspan>
      </text>
    </g>
    <g>
      <line style="fill: none; stroke-opacity: 1; stroke-width: 2; stroke: #000000" x1="481" y1="200" x2="480.819" y2="222.098"/>
      <polygon style="fill: #000000; fill-opacity: 1; stroke-opacity: 1; stroke-width: 2; stroke: #000000" fill-rule="evenodd" points="480.757,229.597 475.839,219.557 480.819,222.098 485.839,219.639 "/>
    </g>
    <g>
      <line style="fill: none; stroke-opacity: 1; stroke-width: 2; stroke: #000000" x1="455.261" y1="301.833" x2="455.088" y2="320.931"/>
      <polygon style="fill: #000000; fill-opacity: 1; stroke-opacity: 1; stroke-width: 2; stroke: #000000" fill-rule="evenodd" points="455.02,328.431 450.111,318.386 455.088,320.931 460.111,318.476 "/>
    </g>
    <g>
      <line style="fill: none; stroke-opacity: 1; stroke-width: 2; stroke: #000000" x1="455" y1="370.667" x2="455" y2="387.764"/>
      <polygon style="fill: #000000; fill-opacity: 1; stroke-opacity: 1; stroke-width: 2; stroke: #000000" fill-rule="evenodd" points="455,395.264 450,385.264 455,387.764 460,385.264 "/>
    </g>
    <g>
      <line style="fill: none; stroke-opacity: 1; stroke-width: 2; stroke: #000000" x1="455" y1="451.5" x2="454.377" y2="467.605"/>
      <polygon style="fill: #000000; fill-opacity: 1; stroke-opacity: 1; stroke-width: 2; stroke: #000000" fill-rule="evenodd" points="454.086,475.099 449.477,464.913 454.377,467.605 459.47,465.3 "/>
    </g>
    <g>
      <rect style="fill: #ffffff; fill-opacity: 1; stroke-opacity: 1; stroke-width: 2; stroke: #000000" x="389.15" y="552.167" width="127.7" height="70" rx="0" ry="0"/>
      <text font-size="12.7998" style="fill: #000000; fill-opacity: 1; stroke: none;text-anchor:middle;font-family:sans-serif;font-style:normal;font-weight:normal" x="453" y="575.048">
        <tspan x="453" y="575.048">temp:=ch1</tspan>
        <tspan x="453" y="591.048">ch1:=ch0</tspan>
        <tspan x="453" y="607.048">ch0:=temp+ch1</tspan>
      </text>
    </g>
    <g>
      <polygon style="fill: #ffffff; fill-opacity: 1; stroke-opacity: 1; stroke-width: 2; stroke: #000000" fill-rule="evenodd" points="403.118,654 501.441,654 486.882,694 388.559,694 "/>
      <text font-size="12.7998" style="fill: #000000; fill-opacity: 1; stroke: none;text-anchor:middle;font-family:sans-serif;font-style:normal;font-weight:normal" x="445" y="677.881">
        <tspan x="445" y="677.881">Вывод ch0</tspan>
      </text>
    </g>
    <g>
      <line style="fill: none; stroke-opacity: 1; stroke-width: 2; stroke: #000000" x1="454" y1="517.333" x2="453.279" y2="542.435"/>
      <polygon style="fill: #000000; fill-opacity: 1; stroke-opacity: 1; stroke-width: 2; stroke: #000000" fill-rule="evenodd" points="453.064,549.932 448.353,539.792 453.279,542.435 458.349,540.079 "/>
    </g>
    <g>
      <line style="fill: none; stroke-opacity: 1; stroke-width: 2; stroke: #000000" x1="453" y1="622.167" x2="452.5" y2="644.266"/>
      <polygon style="fill: #000000; fill-opacity: 1; stroke-opacity: 1; stroke-width: 2; stroke: #000000" fill-rule="evenodd" points="452.33,651.765 447.558,641.654 452.5,644.266 457.555,641.88 "/>
    </g>
    <g>
      <polyline style="fill: none; stroke-opacity: 1; stroke-width: 2; stroke: #000000" points="437.721,694 438,727.5 361,726.5 361,496.5 411.26,497.198 "/>
      <polygon style="fill: #000000; fill-opacity: 1; stroke-opacity: 1; stroke-width: 2; stroke: #000000" fill-rule="evenodd" points="418.759,497.302 408.691,502.163 411.26,497.198 408.83,492.164 "/>
    </g>
    <g>
      <path style="fill: #ffffff; fill-opacity: 1; stroke-opacity: 1; stroke-width: 2; stroke: #000000" fill-rule="evenodd" d="M 574.075 618.5 L 621.925,618.5 C 628.532,618.5 633.887,627.454 633.887,638.5 C 633.887,649.546 628.532,658.5 621.925,658.5 L 574.075,658.5 C 567.468,658.5 562.112,649.546 562.112,638.5 C 562.112,627.454 567.468,618.5 574.075,618.5z"/>
      <text font-size="12.7998" style="fill: #000000; fill-opacity: 1; stroke: none;text-anchor:middle;font-family:sans-serif;font-style:normal;font-weight:normal" x="598" y="642.381">
        <tspan x="598" y="642.381">Конец</tspan>
      </text>
    </g>
    <g>
      <polyline style="fill: none; stroke-opacity: 1; stroke-width: 2; stroke: #000000" points="487.005,497.333 597,497.5 597.92,608.764 "/>
      <polygon style="fill: #000000; fill-opacity: 1; stroke-opacity: 1; stroke-width: 2; stroke: #000000" fill-rule="evenodd" points="597.982,616.264 592.899,606.306 597.92,608.764 602.899,606.223 "/>
    </g>
  </g>
</svg>
